# xmcd CD database file
#
# Track frame offsets:
#	150
#	15970
#	32250
#	43357
#	59807
#	72222
#	85050
#	98267
#	109862
#	122447
#
# Disc length: 1879 seconds
#
# Revision: 0
# Processed by: cddbd v1.5.2PL0 Copyright (c) Steve Scherf et al.
# Submitted via: CDex 1.70beta2
#
DISCID=7307550a
DTITLE=George Jone and Merle Haggard - Double Barrel Country Legends
DYEAR=1999
DGENRE=Country
TTITLE0=I Don't Need Your Rockin' Chair
TTITLE1=You Couln't Get The Picture
TTITLE2=High-Tech Redneck
TTITLE3=A Good Year For The Roses
TTITLE4=Drive Me To Drink
TTITLE5=I'm Always On A Mountain When I Fall
TTITLE6=The Way I Am
TTITLE7=Rainbow Stew
TTITLE8=It's Been A Great Afternoon
TTITLE9=Make-Up And Faded Blue Jeans
EXTD=YEAR: 1999
EXTT0=
EXTT1=
EXTT2=
EXTT3=
EXTT4=
EXTT5=
EXTT6=
EXTT7=
EXTT8=
EXTT9=
PLAYORDER=
